<svg width="538" height="673" viewBox="0 0 538 673" fill="none" xmlns="http://www.w3.org/2000/svg">
<rect width="538" height="673" fill="#744242"/>
<rect width="538" height="673" fill="#744242"/>
<rect x="17" y="22" width="504" height="630" fill="#744242"/>
<rect x="17" y="22" width="504" height="630" fill="#CF9A74"/>
<rect x="32" y="40" width="474" height="593" fill="#744242"/>
<rect x="32" y="40" width="474" height="593" fill="#744242"/>
<rect x="43" y="53" width="451" height="564" fill="#744242"/>
<rect x="43" y="53" width="451" height="564" fill="#A0CACD"/>
<path d="M220.258 308.117C205.507 303.752 216.612 256.68 224.008 233.69V229.793L319.329 222C324.016 232.261 331.119 244.075 341.205 272.657C351.519 301.882 314.641 308.117 300.265 308.117H275.575C275.575 298.764 235.009 312.481 220.258 308.117Z" fill="#FFDBBA" stroke="#728843"/>
<rect x="233" y="481" width="98" height="42" fill="#2E5A9B"/>
<path d="M217.928 441.751C201.815 435.581 213.945 369.031 222.024 336.527V331.018L326.144 320C331.264 334.507 339.022 351.209 350.04 391.618C361.305 432.936 321.023 441.751 305.32 441.751H278.351C278.351 428.529 234.041 447.921 217.928 441.751Z" fill="#869354" stroke="#728843"/>
<path d="M210.696 483.269C191.13 478.537 210.696 370.478 210.696 383.099L349.711 376C358.464 404.395 370.772 465.955 356.404 476.96C338.899 490.368 230.261 488.002 210.696 483.269Z" fill="#869354" stroke="#869354"/>
<path d="M216.348 229L224.312 232.093C217.941 247.765 216.348 262.681 216.348 268.18C216.348 276.085 219.533 293.132 232.276 298.081C245.019 303.03 281.124 302.549 297.584 301.689C309.619 300.315 334.432 294.163 337.405 280.553C340.379 266.943 329.441 245.669 323.6 236.733H328.91L340.889 268.18C342.482 272.133 344.712 285.914 340.889 309.422C337.066 332.93 324.839 321.623 316.167 315.609C318.114 332.449 315.105 367.265 289.619 353.242C264.134 339.22 267.496 373.52 268.381 395C234.825 384.277 231.922 351.696 234.931 338.292C203.499 344.066 204.313 322.826 208.914 304.267C194.897 293.957 204.667 249.965 216.348 229Z" fill="#858484" stroke="#858484"/>
<ellipse cx="160" cy="417" rx="19" ry="15" fill="#FFDBBA"/>
<path d="M149 402.107C150.991 387.654 203.948 354.318 228 338L219.291 389.285C201.667 403.466 188.189 428.187 175.126 419.008C162.685 410.266 155.428 405.992 149 402.107Z" fill="#869354" stroke="#869354"/>
<path d="M224 234L231.5 237C225.5 252.2 224 266.667 224 272C224 279.667 227 296.2 239 301C251 305.8 285 305.333 300.5 304.5C311.833 303.167 335.2 297.2 338 284C340.8 270.8 330.5 250.167 325 241.5H330L341.281 272C342.781 275.833 344.881 289.2 341.281 312C337.681 334.8 326.167 323.833 318 318C319.833 334.333 317 368.1 293 354.5C269 340.9 272.167 374.167 273 395C241.4 384.6 238.667 353 241.5 340C211.9 345.6 212.667 325 217 307C203.8 297 213 254.333 224 234Z" fill="#AFADAD" stroke="#AFAFAF"/>
<path d="M234.954 297.34C251.448 279.027 271.19 282.079 279 285.894C274.314 300.492 270.285 320.331 244.794 326.7C219.304 333.07 198.406 314.757 197 299.33C202.779 306.297 218.461 315.653 234.954 297.34Z" fill="#858484" stroke="#858484"/>
<path d="M323.046 297.34C306.552 279.027 286.81 282.079 279 285.894C283.686 300.492 287.715 320.331 313.206 326.7C338.696 333.07 359.594 314.757 361 299.33C355.221 306.297 339.539 315.653 323.046 297.34Z" fill="#858484" stroke="#858484"/>
<path d="M234.5 290.408C252.1 272.008 273.167 275.075 281.5 278.908C276.5 293.575 272.2 313.508 245 319.908C217.8 326.308 195.5 307.908 194 292.408C200.167 299.408 216.9 308.808 234.5 290.408Z" fill="#AFADAD" stroke="#858484"/>
<path d="M323 290.408C305.4 272.008 284.333 275.075 276 278.908C281 293.575 285.3 313.508 312.5 319.908C339.7 326.308 362 307.908 363.5 292.408C357.333 299.408 340.6 308.808 323 290.408Z" fill="#AFADAD" stroke="#858484"/>
<circle cx="292.5" cy="265.5" r="11" fill="#FFDBBA" stroke="#744242"/>
<circle cx="265.5" cy="265.5" r="11" fill="#FFDBBA" stroke="#744242"/>
<line x1="276" y1="269.5" x2="282" y2="269.5" stroke="#744242"/>
<path d="M251.534 152C249.034 131.5 288.534 92 289.034 88.5C292.034 84 286.201 75.8333 282.034 72C294.867 75.8333 316.434 88.9 300.034 110.5C279.534 137.5 290.532 181.59 300.034 191.5C316.335 208.5 310.49 219.013 327.034 227C341.534 234 357.034 239 339.534 244.5C282.644 262.38 231.034 242.833 207.534 239.5C193.534 237.9 209.367 230.5 219.034 227C210.634 209.4 237.201 169.667 251.534 152Z" fill="#DD2D2D" stroke="#DD2D2D"/>
<path d="M259.405 155.139C256.962 134.859 295.562 95.7847 296.051 92.3224C298.982 87.8708 293.282 79.7921 289.21 76C301.751 79.7921 322.826 92.7181 306.8 114.086C286.767 140.795 297.514 184.41 306.8 194.213C322.73 211.03 317.018 221.43 333.185 229.331C347.354 236.256 362.501 241.202 345.4 246.643C289.806 264.33 239.372 244.994 216.408 241.697C202.727 240.114 218.199 232.794 227.646 229.331C219.437 211.921 245.399 172.615 259.405 155.139Z" fill="#FF4A4A" stroke="#FF4A4A"/>
<rect x="272" y="278" width="12" height="9" fill="#AFADAD"/>
<line x1="227.23" y1="251.556" x2="254.23" y2="265.556" stroke="#744242"/>
<line y1="-0.5" x2="30.4138" y2="-0.5" transform="matrix(-0.887755 0.460317 0.460317 0.887755 331 252)" stroke="#744242"/>
<path d="M243.425 340C240.925 341.611 236.132 342.686 234.049 343.021C232.858 350.407 231.102 364.372 238.96 375.248C248.783 388.844 249.229 388.844 256.373 393.376C260.698 396.12 268.726 396.565 272 395.39C249.854 390.959 243.723 356.617 243.425 340Z" fill="#858484" stroke="#858484"/>
<ellipse cx="397" cy="412" rx="19" ry="15" fill="#FFDBBA"/>
<path d="M409 393.107C406.984 378.654 353.357 345.318 329 329L337.819 380.285C355.667 394.466 369.315 419.187 382.543 410.008C395.142 401.266 402.491 396.992 409 393.107Z" fill="#869354" stroke="#869354"/>
<path d="M173.5 436.5C173.5 447.006 165.205 455.5 155 455.5C144.795 455.5 136.5 447.006 136.5 436.5C136.5 425.994 144.795 417.5 155 417.5C165.205 417.5 173.5 425.994 173.5 436.5Z" stroke="#744242"/>
<rect x="135" y="449" width="41" height="14" rx="2" fill="#744242"/>
<rect x="133" y="454" width="45" height="14" rx="2" fill="#744242"/>
<line x1="142.488" y1="463.11" x2="131.488" y2="512.109" stroke="#744242"/>
<line y1="-0.5" x2="50.2195" y2="-0.5" transform="matrix(0.219038 0.975716 0.975716 -0.219038 169 463)" stroke="#744242"/>
<path d="M131 510C139.425 513.018 161.019 517.244 180 510" stroke="#744242" stroke-width="7"/>
<path d="M133 507C132.5 507 159 502 177.5 507" stroke="#744242"/>
<ellipse cx="155.5" cy="496" rx="11.5" ry="13" fill="#E8896B"/>
<ellipse cx="155.5" cy="499.5" rx="7.5" ry="9.5" fill="#E8BD6B"/>
<line x1="155.5" y1="466" x2="155.5" y2="514" stroke="#744242"/>
<path d="M196.112 531.889C193.112 519.389 251.112 516.889 252.612 518.389L279.112 521.889V538.889C252.446 540.722 198.512 541.889 196.112 531.889Z" fill="#2E5A9B" stroke="#2E5A9B"/>
<path d="M370 531.889C373 519.389 315 516.889 313.5 518.389L287 521.889V538.889C313.667 540.722 367.6 541.889 370 531.889Z" fill="#2E5A9B" stroke="#2E5A9B"/>
<ellipse cx="279.5" cy="286" rx="20.5" ry="16" fill="#EBA61F"/>
</svg>
