<svg width="603" height="734" viewBox="0 0 603 734" fill="none" xmlns="http://www.w3.org/2000/svg">
<path d="M602.5 367C602.5 569.509 467.65 733.5 301.5 733.5C135.35 733.5 0.5 569.509 0.5 367C0.5 164.491 135.35 0.5 301.5 0.5C467.65 0.5 602.5 164.491 602.5 367Z" fill="#744242" stroke="black"/>
<ellipse cx="301.5" cy="367" rx="277.5" ry="338" fill="#CF9A74"/>
<ellipse cx="301.5" cy="367" rx="268.5" ry="327" fill="#744242"/>
<path d="M563 367C563 543.179 445.699 686 301 686C156.301 686 39 543.179 39 367C39 190.821 156.301 48 301 48C445.699 48 563 190.821 563 367Z" fill="#A0CACD"/>
<ellipse cx="298.473" cy="327.46" rx="65.6191" ry="35.5108" transform="rotate(-7.1582 298.473 327.46)" fill="#BE8C2A"/>
<path d="M195.511 509.69C168.051 503.219 188.723 433.423 202.492 399.334V393.556L379.935 382C388.661 397.215 401.883 414.732 420.659 457.112C439.858 500.446 371.208 509.69 344.446 509.69H298.486C298.486 495.823 222.971 516.161 195.511 509.69Z" fill="#728843" stroke="#728843"/>
<ellipse cx="242.5" cy="521.5" rx="55.5" ry="41.5" fill="#2E5A9B"/>
<ellipse cx="365.5" cy="521.5" rx="55.5" ry="41.5" fill="#2E5A9B"/>
<path d="M223.681 397.229C171.142 407.021 177.94 340.696 187.907 306.309L378.907 263.427C418.698 273.121 417.492 309.201 411.915 326.029C436.183 368.3 396.55 387.484 373.7 391.792C372.795 414.831 364.196 462.431 337.042 468.519C309.887 474.607 312.593 514.063 317.341 533.031C262.437 515.997 248.364 480.819 248.19 465.359C211.298 458.808 216.479 417.21 223.681 397.229Z" fill="#D8D4D4" stroke="#D8D4D4"/>
<ellipse cx="300.041" cy="322.372" rx="62.0006" ry="30.3924" transform="rotate(-7.1582 300.041 322.372)" fill="#EBA61F"/>
<path d="M208.033 217.883C214.282 196.403 179.38 168.24 159.312 157.147C190.179 155.638 212.931 139.924 259.498 166.024C306.065 192.125 316.38 204.866 304.112 210.502C368.879 204.085 389.999 245.296 389.999 245.296C397.238 252.943 403.026 270.325 390.217 279.524C374.206 291.022 184.86 341.7 168.776 312.91C155.908 289.878 187.917 271.018 214.055 254.238C214.055 254.238 201.784 239.364 208.033 217.883Z" fill="#DD2D2D" stroke="#FF4A4A"/>
<path d="M215.956 215.793C222.721 194.8 186.666 167.779 165.876 157.21C198.071 155.381 221.973 139.811 270.211 164.687C318.45 189.562 329.054 201.85 316.199 207.483C383.79 200.477 405.326 240.365 405.326 240.365C412.783 247.729 418.613 264.589 405.153 273.697C388.328 285.083 190.354 336.648 173.923 308.797C160.779 286.516 194.366 267.775 221.809 251.128C221.809 251.128 209.192 236.785 215.956 215.793Z" fill="#FF4A4A" stroke="#FF4A4A"/>
<path d="M186.652 272C146.741 327.026 378.686 284.743 381 284.164L304.649 305.016L240.445 316.6C222.514 320.075 183.413 323.898 170.456 311.387C157.5 298.876 175.855 279.916 186.652 272Z" fill="#DD2D2D" stroke="#DD2D2D"/>
<path d="M226.737 386.664C199.046 389.443 208.853 316.023 183.471 322.392C155.78 411.331 189.624 415.422 208.853 406.351C185.316 464.254 223.275 472.167 245.197 468.886C233.198 515.672 286.733 530.456 315 532C257.773 520.883 289.04 448.62 260.773 448.62C225.698 465.759 221.545 415.229 226.737 386.664Z" fill="#B6B6B6" stroke="#B6B6B6"/>
</svg>
