<svg width="536" height="717" viewBox="0 0 536 717" fill="none" xmlns="http://www.w3.org/2000/svg">
<path d="M0.651367 716.486L-1.91475e-05 0.486627L535 -9.33729e-05L535.651 716L0.651367 716.486Z" fill="#744242"/>
<path d="M0.651367 716.486L-1.91475e-05 0.486627L535 -9.33729e-05L535.651 716L0.651367 716.486Z" fill="#744242"/>
<path d="M0.651367 716.486L-1.91475e-05 0.486627L535 -9.33729e-05L535.651 716L0.651367 716.486Z" fill="#744242"/>
<path d="M0.651367 716.486L-1.91475e-05 0.486627L535 -9.33729e-05L535.651 716L0.651367 716.486Z" fill="#744242"/>
<path d="M22.6296 692.466L22.0219 24.4666L514.022 24.019L514.629 692.019L22.6296 692.466Z" fill="#CF9A74"/>
<path d="M22.6296 692.466L22.0219 24.4666L514.022 24.019L514.629 692.019L22.6296 692.466Z" fill="#CF9A74"/>
<path d="M22.6296 692.466L22.0219 24.4666L514.022 24.019L514.629 692.019L22.6296 692.466Z" fill="#CF9A74"/>
<path d="M22.6296 692.466L22.0219 24.4666L514.022 24.019L514.629 692.019L22.6296 692.466Z" fill="#CF9A74"/>
<circle cx="14.5176" cy="569.474" r="8" transform="rotate(-90.0521 14.5176 569.474)" fill="#CF9A74"/>
<circle cx="14.4922" cy="541.474" r="8" transform="rotate(-90.0521 14.4922 541.474)" fill="#CF9A74"/>
<circle cx="14.4667" cy="513.474" r="8" transform="rotate(-90.0521 14.4667 513.474)" fill="#CF9A74"/>
<circle cx="14.4412" cy="485.474" r="8" transform="rotate(-90.0521 14.4412 485.474)" fill="#CF9A74"/>
<circle cx="35.0289" cy="16.4402" r="8" transform="rotate(-0.155312 35.0289 16.4402)" fill="#CF9A74"/>
<circle cx="63.0289" cy="16.3643" r="8" transform="rotate(-0.155312 63.0289 16.3643)" fill="#CF9A74"/>
<circle cx="91.0288" cy="16.2886" r="8" transform="rotate(-0.155312 91.0288 16.2886)" fill="#CF9A74"/>
<circle cx="119.029" cy="16.2127" r="8" transform="rotate(-0.155312 119.029 16.2127)" fill="#CF9A74"/>
<circle cx="147.029" cy="16.3384" r="8" transform="rotate(-0.155312 147.029 16.3384)" fill="#CF9A74"/>
<circle cx="175.029" cy="16.2625" r="8" transform="rotate(-0.155312 175.029 16.2625)" fill="#CF9A74"/>
<circle cx="203.029" cy="16.1865" r="8" transform="rotate(-0.155312 203.029 16.1865)" fill="#CF9A74"/>
<circle cx="231.029" cy="16.1106" r="8" transform="rotate(-0.155312 231.029 16.1106)" fill="#CF9A74"/>
<circle cx="259.029" cy="16.2366" r="8" transform="rotate(-0.155312 259.029 16.2366)" fill="#CF9A74"/>
<circle cx="287.029" cy="16.1609" r="8" transform="rotate(-0.155312 287.029 16.1609)" fill="#CF9A74"/>
<circle cx="315.029" cy="16.085" r="8" transform="rotate(-0.155312 315.029 16.085)" fill="#CF9A74"/>
<circle cx="343.029" cy="16.009" r="8" transform="rotate(-0.155312 343.029 16.009)" fill="#CF9A74"/>
<circle cx="371.029" cy="16.1348" r="8" transform="rotate(-0.155312 371.029 16.1348)" fill="#CF9A74"/>
<circle cx="399.029" cy="16.0589" r="8" transform="rotate(-0.155312 399.029 16.0589)" fill="#CF9A74"/>
<circle cx="427.029" cy="15.9829" r="8" transform="rotate(-0.155312 427.029 15.9829)" fill="#CF9A74"/>
<circle cx="455.029" cy="15.907" r="8" transform="rotate(-0.155312 455.029 15.907)" fill="#CF9A74"/>
<circle cx="478.029" cy="16.0374" r="8" transform="rotate(-0.155312 478.029 16.0374)" fill="#CF9A74"/>
<circle cx="506.029" cy="15.9614" r="8" transform="rotate(-0.155312 506.029 15.9614)" fill="#CF9A74"/>
<circle cx="32.6512" cy="700.443" r="8" transform="rotate(-0.155312 32.6512 700.443)" fill="#CF9A74"/>
<circle cx="60.6512" cy="700.367" r="8" transform="rotate(-0.155312 60.6512 700.367)" fill="#CF9A74"/>
<circle cx="88.6511" cy="700.291" r="8" transform="rotate(-0.155312 88.6511 700.291)" fill="#CF9A74"/>
<circle cx="116.651" cy="700.215" r="8" transform="rotate(-0.155312 116.651 700.215)" fill="#CF9A74"/>
<circle cx="144.651" cy="700.341" r="8" transform="rotate(-0.155312 144.651 700.341)" fill="#CF9A74"/>
<circle cx="172.651" cy="700.265" r="8" transform="rotate(-0.155312 172.651 700.265)" fill="#CF9A74"/>
<circle cx="200.651" cy="700.189" r="8" transform="rotate(-0.155312 200.651 700.189)" fill="#CF9A74"/>
<circle cx="228.651" cy="700.114" r="8" transform="rotate(-0.155312 228.651 700.114)" fill="#CF9A74"/>
<circle cx="256.651" cy="700.239" r="8" transform="rotate(-0.155312 256.651 700.239)" fill="#CF9A74"/>
<circle cx="284.651" cy="700.163" r="8" transform="rotate(-0.155312 284.651 700.163)" fill="#CF9A74"/>
<circle cx="312.651" cy="700.088" r="8" transform="rotate(-0.155312 312.651 700.088)" fill="#CF9A74"/>
<circle cx="340.651" cy="700.011" r="8" transform="rotate(-0.155312 340.651 700.011)" fill="#CF9A74"/>
<circle cx="368.651" cy="700.137" r="8" transform="rotate(-0.155312 368.651 700.137)" fill="#CF9A74"/>
<circle cx="396.651" cy="700.061" r="8" transform="rotate(-0.155312 396.651 700.061)" fill="#CF9A74"/>
<circle cx="424.651" cy="699.986" r="8" transform="rotate(-0.155312 424.651 699.986)" fill="#CF9A74"/>
<circle cx="452.651" cy="699.909" r="8" transform="rotate(-0.155312 452.651 699.909)" fill="#CF9A74"/>
<circle cx="475.651" cy="700.04" r="8" transform="rotate(-0.155312 475.651 700.04)" fill="#CF9A74"/>
<circle cx="503.651" cy="699.964" r="8" transform="rotate(-0.155312 503.651 699.964)" fill="#CF9A74"/>
<circle cx="14.6195" cy="681.474" r="8" transform="rotate(-90.0521 14.6195 681.474)" fill="#CF9A74"/>
<circle cx="14.5941" cy="653.474" r="8" transform="rotate(-90.0521 14.5941 653.474)" fill="#CF9A74"/>
<circle cx="14.5686" cy="625.474" r="8" transform="rotate(-90.0521 14.5686 625.474)" fill="#CF9A74"/>
<circle cx="14.5431" cy="597.474" r="8" transform="rotate(-90.0521 14.5431 597.474)" fill="#CF9A74"/>
<circle cx="14.1101" cy="121.474" r="8" transform="rotate(-90.0521 14.1101 121.474)" fill="#CF9A74"/>
<circle cx="14.0846" cy="93.4739" r="8" transform="rotate(-90.0521 14.0846 93.4739)" fill="#CF9A74"/>
<circle cx="14.0591" cy="65.4739" r="8" transform="rotate(-90.0521 14.0591 65.4739)" fill="#CF9A74"/>
<circle cx="14.0337" cy="37.4739" r="8" transform="rotate(-90.0521 14.0337 37.4739)" fill="#CF9A74"/>
<circle cx="14.4158" cy="457.474" r="8" transform="rotate(-90.0521 14.4158 457.474)" fill="#CF9A74"/>
<circle cx="14.3903" cy="429.474" r="8" transform="rotate(-90.0521 14.3903 429.474)" fill="#CF9A74"/>
<circle cx="14.3648" cy="401.474" r="8" transform="rotate(-90.0521 14.3648 401.474)" fill="#CF9A74"/>
<circle cx="14.3393" cy="373.474" r="8" transform="rotate(-90.0521 14.3393 373.474)" fill="#CF9A74"/>
<circle cx="14.3139" cy="345.474" r="8" transform="rotate(-90.0521 14.3139 345.474)" fill="#CF9A74"/>
<circle cx="14.2884" cy="317.474" r="8" transform="rotate(-90.0521 14.2884 317.474)" fill="#CF9A74"/>
<circle cx="14.2629" cy="289.474" r="8" transform="rotate(-90.0521 14.2629 289.474)" fill="#CF9A74"/>
<circle cx="14.2375" cy="261.474" r="8" transform="rotate(-90.0521 14.2375 261.474)" fill="#CF9A74"/>
<circle cx="14.212" cy="233.474" r="8" transform="rotate(-90.0521 14.212 233.474)" fill="#CF9A74"/>
<circle cx="14.1865" cy="205.474" r="8" transform="rotate(-90.0521 14.1865 205.474)" fill="#CF9A74"/>
<circle cx="14.1611" cy="177.474" r="8" transform="rotate(-90.0521 14.1611 177.474)" fill="#CF9A74"/>
<circle cx="14.1355" cy="149.474" r="8" transform="rotate(-90.0521 14.1355 149.474)" fill="#CF9A74"/>
<circle cx="522.517" cy="568.012" r="8" transform="rotate(-90.0521 522.517 568.012)" fill="#CF9A74"/>
<circle cx="522.491" cy="540.011" r="8" transform="rotate(-90.0521 522.491 540.011)" fill="#CF9A74"/>
<circle cx="522.466" cy="512.012" r="8" transform="rotate(-90.0521 522.466 512.012)" fill="#CF9A74"/>
<circle cx="522.44" cy="484.012" r="8" transform="rotate(-90.0521 522.44 484.012)" fill="#CF9A74"/>
<circle cx="522.618" cy="680.012" r="8" transform="rotate(-90.0521 522.618 680.012)" fill="#CF9A74"/>
<circle cx="522.593" cy="652.011" r="8" transform="rotate(-90.0521 522.593 652.011)" fill="#CF9A74"/>
<circle cx="522.567" cy="624.012" r="8" transform="rotate(-90.0521 522.567 624.012)" fill="#CF9A74"/>
<circle cx="522.542" cy="596.011" r="8" transform="rotate(-90.0521 522.542 596.011)" fill="#CF9A74"/>
<circle cx="522.109" cy="120.012" r="8" transform="rotate(-90.0521 522.109 120.012)" fill="#CF9A74"/>
<circle cx="522.084" cy="92.0118" r="8" transform="rotate(-90.0521 522.084 92.0118)" fill="#CF9A74"/>
<circle cx="522.058" cy="64.0118" r="8" transform="rotate(-90.0521 522.058 64.0118)" fill="#CF9A74"/>
<circle cx="522.033" cy="36.0118" r="8" transform="rotate(-90.0521 522.033 36.0118)" fill="#CF9A74"/>
<circle cx="522.415" cy="456.012" r="8" transform="rotate(-90.0521 522.415 456.012)" fill="#CF9A74"/>
<circle cx="522.389" cy="428.012" r="8" transform="rotate(-90.0521 522.389 428.012)" fill="#CF9A74"/>
<circle cx="522.364" cy="400.012" r="8" transform="rotate(-90.0521 522.364 400.012)" fill="#CF9A74"/>
<circle cx="522.338" cy="372.012" r="8" transform="rotate(-90.0521 522.338 372.012)" fill="#CF9A74"/>
<circle cx="522.313" cy="344.012" r="8" transform="rotate(-90.0521 522.313 344.012)" fill="#CF9A74"/>
<circle cx="522.287" cy="316.012" r="8" transform="rotate(-90.0521 522.287 316.012)" fill="#CF9A74"/>
<circle cx="522.262" cy="288.012" r="8" transform="rotate(-90.0521 522.262 288.012)" fill="#CF9A74"/>
<circle cx="522.236" cy="260.012" r="8" transform="rotate(-90.0521 522.236 260.012)" fill="#CF9A74"/>
<circle cx="522.211" cy="232.012" r="8" transform="rotate(-90.0521 522.211 232.012)" fill="#CF9A74"/>
<circle cx="522.185" cy="204.012" r="8" transform="rotate(-90.0521 522.185 204.012)" fill="#CF9A74"/>
<circle cx="522.16" cy="176.012" r="8" transform="rotate(-90.0521 522.16 176.012)" fill="#CF9A74"/>
<circle cx="522.134" cy="148.012" r="8" transform="rotate(-90.0521 522.134 148.012)" fill="#CF9A74"/>
<rect x="26.6232" y="685.463" width="656" height="482" transform="rotate(-90.0521 26.6232 685.463)" fill="#744242"/>
<rect x="40.6087" y="669.45" width="627" height="455" transform="rotate(-90.0521 40.6087 669.45)" fill="#A0CACD"/>
<path d="M469.534 506.843C469.534 560.415 383.871 511.243 288.326 511.243C226.326 474.243 128.826 521.815 128.826 468.243C128.826 414.672 204.854 379.423 300.399 379.423C395.945 379.423 469.534 453.271 469.534 506.843Z" fill="#E0C7C7"/>
<path d="M472.177 507.049C459.739 571.835 353.565 486.327 265.157 469.354C176.748 452.381 117.946 524.335 130.384 459.549C142.821 394.763 244.938 351.233 333.347 368.206C421.755 385.179 484.614 442.263 472.177 507.049Z" fill="#F07B7B"/>
<path d="M447.653 328.216C450.011 364.868 458.235 401.688 394.026 405.821C329.818 409.953 204.018 396.232 201.659 359.581C199.3 322.93 262.914 273.469 327.122 269.336C391.33 265.204 445.294 291.565 447.653 328.216Z" fill="#728843"/>
<ellipse cx="243.968" cy="325.49" rx="18" ry="51.5" transform="rotate(5.40779 243.968 325.49)" fill="#2E5A9B"/>
<ellipse cx="187.897" cy="319.897" rx="18" ry="51.5" transform="rotate(-20.7405 187.897 319.897)" fill="#2E5A9B"/>
<ellipse cx="333.616" cy="222.322" rx="30" ry="24.5" transform="rotate(-3.68249 333.616 222.322)" fill="#FFDBBA"/>
<path d="M373.505 228.883C340.723 223.529 361.443 194.719 375.901 180.983L414.608 160.93C422.458 169.388 440.629 200.855 450.511 259.051C460.393 317.248 410.54 319.066 384.378 312.7C379.772 343.291 347.889 333.16 332.523 324.27C339.252 360.717 285.336 357.308 257.538 351.048C274.893 348.285 303.824 338.081 280.703 319.373C257.582 300.665 293.824 284.868 314.835 279.308C302.557 265.61 348.832 239.984 373.505 228.883Z" fill="#B6B6B6" stroke="#B6B6B6"/>
<path d="M358.439 225.408C325.658 220.054 346.378 191.243 360.836 177.507L399.543 157.454C407.393 165.913 425.563 197.379 435.446 255.576C445.328 313.772 395.475 315.59 369.313 309.225C364.707 339.816 332.823 329.684 317.457 320.794C324.186 357.241 270.271 353.833 242.472 347.573C259.828 344.809 288.759 334.605 265.638 315.897C242.517 297.189 278.759 281.392 299.77 275.833C287.492 262.134 333.767 236.508 358.439 225.408Z" fill="#D8D4D4" stroke="#D8D4D4"/>
<ellipse cx="313.559" cy="237.642" rx="35" ry="26.5" transform="rotate(-3.68249 313.559 237.642)" fill="#EBA61F"/>
<path d="M274.753 202.453C237.169 227.839 294.92 216.929 295.86 216.587L430.706 167.507C475.341 151.261 428.011 155.718 401.612 156.281C375.212 156.844 368.448 106.097 362.974 85.2096C357.5 64.3222 313.331 68.6924 323.201 76.8059C333.071 84.9194 328.675 97.6933 330.554 97.0093C332.434 96.3252 324.032 141.95 313.659 167.541C305.36 188.014 284.264 199.346 274.753 202.453Z" fill="#FF4A4A" stroke="#FF4A4A"/>
<ellipse cx="163.84" cy="433.596" rx="19" ry="9" transform="rotate(-23.5963 163.84 433.596)" fill="#E7CACA"/>
<ellipse cx="230.383" cy="433.091" rx="20.9492" ry="12.3663" transform="rotate(-8.56429 230.383 433.091)" fill="#E7CACA"/>
<ellipse cx="198.202" cy="409.971" rx="12.7206" ry="8.39461" transform="rotate(-14.0273 198.202 409.971)" fill="#E7CACA"/>
<path d="M325.326 511.243C309.726 492.043 263.659 489.91 250.826 493.743C236.659 523.41 195.326 567.243 186.826 575.243C177.9 583.644 174.326 585.243 165.326 597.243C158.126 606.843 239.326 611.243 274.826 612.243C292.992 612.91 349.726 610.843 325.326 597.243C300.926 583.643 311.826 535.91 325.326 511.243Z" fill="#CF9A74" stroke="#CF9A74"/>
<path d="M347.426 631.982C343.626 613.8 342.746 594.24 364.826 576.184C357.226 581.408 344.306 597.75 336.626 608.785C334.426 594.992 341.186 533.802 361.826 514.743C347.116 526.417 320.479 567.327 317.648 610.962C317.675 594.265 315.593 569.86 301.826 554.241C309.826 571.795 317.186 606.151 301.826 635.743L311.426 625.085L317.426 631.982L326.426 625.085L331.826 631.982L340.226 620.697L347.426 631.982Z" fill="#7F9C74" stroke="#7F9C74"/>
<path d="M145.525 621C160.025 605.5 130.025 558 131.025 557C143.025 572.2 152.025 586 155.025 591C168.225 561.8 156.525 534.167 149.025 524C165.425 534.4 166.525 565.667 165.025 580C169.025 573.6 166.691 543.667 165.025 529.5C173.425 537.5 174.858 566.5 174.525 580C177.725 542.8 190.858 533.5 197.025 533.5C180.625 545.1 177.525 577.333 178.025 592C181.525 566 234.525 557 206.525 568.5C184.125 577.7 184.858 602.833 188.025 614.25L190.525 621L174.525 607.5V621L165.025 616L160.025 635.5V616L145.525 621Z" fill="#7F9C74" stroke="#7F9C74"/>
</svg>
