<svg width="767" height="427" viewBox="0 0 767 427" fill="none" xmlns="http://www.w3.org/2000/svg">
<path d="M57 42.5625V15H37V69L57 42.5625Z" fill="#B57E4C" stroke="#B57E4C"/>
<path d="M98.0172 1.34836C78.9792 -5.23263 26.77 83.0623 2.06225 128.032C-0.153466 131.022 -0.375038 137 16.4644 137L181.536 137C198.375 137 198.153 131.022 195.938 128.032C171.23 83.0622 117.055 -5.23263 98.0172 1.34836Z" fill="#D5B187" stroke="#D4B187"/>
<path d="M97.6726 23.2946C81.6458 17.7298 37.6941 92.3909 16.8942 130.417C15.029 132.945 14.8424 138 29.0185 138L167.981 138C182.158 138 181.971 132.945 180.106 130.417C159.306 92.3909 113.699 17.7298 97.6726 23.2946Z" fill="white" stroke="white"/>
<rect x="26" y="137" width="148" height="79" fill="white"/>
<circle cx="98" cy="104" r="21.5" fill="#E8D198" stroke="#744242" stroke-width="3"/>
<path d="M15.6381 243.109C18.8349 229.135 19.5752 214.101 1 200.223C7.39365 204.238 18.2629 216.799 24.7238 225.28C26.5746 214.679 20.8876 167.649 3.52381 153C15.8988 161.972 38.3076 193.415 40.6889 226.953C40.6661 214.12 42.4177 195.362 54 183.358C47.2698 196.85 41.0781 223.256 54 246L45.9238 237.808L40.8762 243.109L33.3048 237.808L28.7619 243.109L21.6952 234.435L15.6381 243.109Z" fill="#7F9C74"/>
<path d="M15.6381 243.109C18.8349 229.135 19.5752 214.101 1 200.223C7.39365 204.238 18.2629 216.799 24.7238 225.28C26.5746 214.679 20.8876 167.649 3.52381 153C16.8159 162.637 41.6838 198.199 40.8762 234.435C40.3714 222.71 39.8667 198.006 54 183.358C47.2698 196.85 41.0781 223.256 54 246L45.9238 237.808L40.8762 243.109L33.3048 237.808L28.7619 243.109L21.6952 234.435L15.6381 243.109Z" stroke="#7F9C74"/>
<path d="M186.362 243.109C183.165 229.135 182.425 214.101 201 200.223C194.606 204.238 183.737 216.799 177.276 225.28C175.425 214.679 181.112 167.649 198.476 153C186.101 161.972 163.692 193.415 161.311 226.953C161.334 214.12 159.582 195.362 148 183.358C154.73 196.85 160.922 223.256 148 246L156.076 237.808L161.124 243.109L168.695 237.808L173.238 243.109L180.305 234.435L186.362 243.109Z" fill="#7F9C74"/>
<path d="M186.362 243.109C183.165 229.135 182.425 214.101 201 200.223C194.606 204.238 183.737 216.799 177.276 225.28C175.425 214.679 181.112 167.649 198.476 153C185.184 162.637 160.316 198.199 161.124 234.435C161.629 222.71 162.133 198.006 148 183.358C154.73 196.85 160.922 223.256 148 246L156.076 237.808L161.124 243.109L168.695 237.808L173.238 243.109L180.305 234.435L186.362 243.109Z" stroke="#7F9C74"/>
<path d="M180.819 236.394C179.251 218.964 178.888 200.211 188 182.902C184.863 187.91 179.531 203.577 176.362 214.155C175.454 200.933 178.244 142.272 186.762 124C180.691 135.191 169.698 174.411 168.53 216.243C168.541 200.235 167.682 176.839 162 161.865C165.302 178.694 168.339 211.631 162 240L165.962 229.782L168.438 236.394L172.152 229.782L174.381 236.394L177.848 225.575L180.819 236.394Z" fill="#7F9C74"/>
<path d="M180.819 236.394C179.251 218.964 178.888 200.211 188 182.902C184.863 187.91 179.531 203.577 176.362 214.155C175.454 200.933 178.244 142.272 186.762 124C180.241 136.021 168.042 180.377 168.438 225.575C168.686 210.95 168.933 180.137 162 161.865C165.302 178.694 168.339 211.631 162 240L165.962 229.782L168.438 236.394L172.152 229.782L174.381 236.394L177.848 225.575L180.819 236.394Z" stroke="#7F9C74"/>
<path d="M160.467 236.394C157.511 218.964 156.827 200.211 174 182.902C168.089 187.91 158.04 203.577 152.067 214.155C150.356 200.933 155.613 142.272 171.667 124C160.226 135.191 139.508 174.411 137.306 216.243C137.328 200.235 135.708 176.839 125 161.865C131.222 178.694 136.947 211.631 125 240L132.467 229.782L137.133 236.394L144.133 229.782L148.333 236.394L154.867 225.575L160.467 236.394Z" fill="#7F9C74"/>
<path d="M160.467 236.394C157.511 218.964 156.827 200.211 174 182.902C168.089 187.91 158.04 203.577 152.067 214.155C150.356 200.933 155.613 142.272 171.667 124C159.378 136.021 136.387 180.377 137.133 225.575C137.6 210.95 138.067 180.137 125 161.865C131.222 178.694 136.947 211.631 125 240L132.467 229.782L137.133 236.394L144.133 229.782L148.333 236.394L154.867 225.575L160.467 236.394Z" stroke="#7F9C74"/>
<path d="M108.132 216H82.872C-18.6148 355.645 121.416 418.994 180.542 445L766 429.284C55.5919 387.525 98.0278 270.444 108.132 216Z" fill="#E8D198" stroke="#E8D198"/>
</svg>
