<svg width="436" height="700" viewBox="0 0 436 700" fill="none" xmlns="http://www.w3.org/2000/svg">
<circle cx="346.5" cy="85.5" r="85.5" fill="#EDB13B"/>
<path d="M306.5 63L376.215 234.75H236.785L306.5 63Z" fill="#314B2F"/>
<path d="M307 142L393.603 354.25H220.397L307 142Z" fill="#314B2F"/>
<path d="M306.5 235L403.062 472H209.938L306.5 235Z" fill="#314B2F"/>
<path d="M151.5 96L247.196 318.75H55.8042L151.5 96Z" fill="#314B2F"/>
<path d="M152 199L265.449 463H38.5507L152 199Z" fill="#314B2F"/>
<path d="M152 292L283.636 598H20.3641L152 292Z" fill="#314B2F"/>
<path d="M240.5 140L298.091 329.75H182.909L240.5 140Z" fill="#556B4D"/>
<path d="M240.5 284L317.143 535.25H163.857L240.5 284Z" fill="#556B4D"/>
<path d="M240.5 202L307.617 422.5H173.383L240.5 202Z" fill="#556B4D"/>
<path d="M373.5 320L412.038 438.5H334.962L373.5 320Z" fill="#556B4D"/>
<path d="M374 373L417.301 506.5H330.699L374 373Z" fill="#556B4D"/>
<path d="M373.5 425L427.627 595.25H319.373L373.5 425Z" fill="#556B4D"/>
<path d="M271.017 386.348C251.979 379.767 199.77 468.062 175.062 513.032C172.847 516.022 172.625 522 189.464 522L354.536 522C371.375 522 371.153 516.022 368.938 513.032C344.23 468.062 290.055 379.767 271.017 386.348Z" fill="#D5B187" stroke="#D4B187"/>
<path d="M270.673 408.295C254.646 402.73 210.694 477.391 189.894 515.417C188.029 517.945 187.842 523 202.019 523L340.981 523C355.158 523 354.971 517.945 353.106 515.417C332.306 477.391 286.699 402.73 270.673 408.295Z" fill="white" stroke="white"/>
<ellipse cx="271.5" cy="389" rx="7.5" ry="4" fill="#D4B187"/>
<rect x="199" y="522" width="148" height="79" fill="white"/>
<circle cx="271" cy="489" r="21.5" fill="#E8D198" stroke="#744242" stroke-width="3"/>
<path d="M188.638 628.109C191.835 614.135 192.575 599.101 174 585.223C180.394 589.238 191.263 601.799 197.724 610.28C199.575 599.679 193.888 552.649 176.524 538C188.899 546.972 211.308 578.415 213.689 611.953C213.666 599.12 215.418 580.362 227 568.358C220.27 581.85 214.078 608.256 227 631L218.924 622.808L213.876 628.109L206.305 622.808L201.762 628.109L194.695 619.435L188.638 628.109Z" fill="#7F9C74" stroke="#7F9C74"/>
<path d="M359.362 628.109C356.165 614.135 355.425 599.101 374 585.223C367.606 589.238 356.737 601.799 350.276 610.28C348.425 599.679 354.112 552.649 371.476 538C359.101 546.972 336.692 578.415 334.311 611.953C334.334 599.12 332.582 580.362 321 568.358C327.73 581.85 333.922 608.256 321 631L329.076 622.808L334.124 628.109L341.695 622.808L346.238 628.109L353.305 619.435L359.362 628.109Z" fill="#7F9C74" stroke="#7F9C74"/>
<path d="M353.819 621.394C352.251 603.964 351.888 585.211 361 567.902C357.863 572.91 352.531 588.577 349.362 599.155C348.454 585.933 351.244 527.272 359.762 509C353.691 520.191 342.698 559.411 341.53 601.243C341.541 585.235 340.682 561.839 335 546.865C338.302 563.694 341.339 596.631 335 625L338.962 614.782L341.438 621.394L345.152 614.782L347.381 621.394L350.848 610.575L353.819 621.394Z" fill="#7F9C74" stroke="#7F9C74"/>
<path d="M333.467 621.394C330.511 603.964 329.827 585.211 347 567.902C341.089 572.91 331.04 588.577 325.067 599.155C323.356 585.933 328.613 527.272 344.667 509C333.226 520.191 312.508 559.411 310.306 601.243C310.328 585.235 308.708 561.839 298 546.865C304.222 563.694 309.947 596.631 298 625L305.467 614.782L310.133 621.394L317.133 614.782L321.333 621.394L327.867 610.575L333.467 621.394Z" fill="#7F9C74" stroke="#7F9C74"/>
</svg>
