<svg width="297" height="218" viewBox="0 0 297 218" fill="none" xmlns="http://www.w3.org/2000/svg">
<path d="M278.6 213.238C274.8 195.057 273.92 175.496 296 157.44C288.4 162.665 275.48 179.007 267.8 190.041C265.6 176.249 272.36 115.059 293 96C278.29 107.674 251.653 148.584 248.823 192.219C248.85 175.521 246.768 151.116 233 135.497C241 153.052 248.36 187.408 233 217L242.6 206.342L248.6 213.238L257.6 206.342L263 213.238L271.4 201.953L278.6 213.238Z" fill="#7F9C74"/>
<path d="M278.6 213.238C274.8 195.057 273.92 175.496 296 157.44C288.4 162.665 275.48 179.007 267.8 190.041C265.6 176.249 272.36 115.059 293 96C277.2 108.539 247.64 154.807 248.6 201.953C249.2 186.698 249.8 154.556 233 135.497C241 153.052 248.36 187.408 233 217L242.6 206.342L248.6 213.238L257.6 206.342L263 213.238L271.4 201.953L278.6 213.238Z" stroke="#7F9C74"/>
<path d="M278.6 213.238C274.8 195.057 273.92 175.496 296 157.44C288.4 162.665 275.48 179.007 267.8 190.041C265.6 176.249 272.36 115.059 293 96C278.29 107.674 251.653 148.584 248.823 192.219C248.85 175.521 246.768 151.116 233 135.497C241 153.052 248.36 187.408 233 217L242.6 206.342L248.6 213.238L257.6 206.342L263 213.238L271.4 201.953L278.6 213.238Z" fill="#7F9C74"/>
<path d="M278.6 213.238C274.8 195.057 273.92 175.496 296 157.44C288.4 162.665 275.48 179.007 267.8 190.041C265.6 176.249 272.36 115.059 293 96C277.2 108.539 247.64 154.807 248.6 201.953C249.2 186.698 249.8 154.556 233 135.497C241 153.052 248.36 187.408 233 217L242.6 206.342L248.6 213.238L257.6 206.342L263 213.238L271.4 201.953L278.6 213.238Z" stroke="#7F9C74"/>
<path d="M122.232 96C121.151 96 92.342 104.184 78.0729 108.276C84.3813 127.918 66.8078 172.604 66.8078 173.095C66.8078 173.586 53.7403 189.3 66.8078 191.755C79.8753 194.21 202.439 178.006 166.391 152.471C130.343 126.936 123.584 96 122.232 96Z" fill="#E8D198" stroke="black"/>
<path d="M214.889 116.986C214.505 116.848 202.947 116.826 197.216 116.833C196.313 126.41 182.903 144.123 182.824 144.342C182.745 144.561 175.58 149.911 179.835 152.675C184.089 155.439 230.279 163.842 221.548 147.839C212.818 131.836 215.37 117.158 214.889 116.986Z" fill="#F2E8CD" stroke="black"/>
<path d="M240.371 112.347C225.402 83.9119 216.533 76.7805 210.056 75.9136C203.651 75.025 193.351 79.5527 171.377 103.123C165.784 109.502 170.622 116.43 173.845 117.491C186.762 121.557 217.22 128.905 235.724 125.764C239.112 125.587 244.091 119.972 240.371 112.347Z" fill="#F07B7B"/>
<path d="M203.878 76.6923C210.988 74.4032 220.07 73.7816 240.371 112.347C244.091 119.972 239.112 125.587 235.724 125.764C217.22 128.905 186.762 121.557 173.845 117.491C170.622 116.43 165.784 109.502 171.377 103.123C201.096 71.2448 209.461 74.199 215.719 78.2753" stroke="#F48F8F"/>
<path d="M163.116 57.5451C112.844 22.3452 90.0572 17.4229 76.5454 20.946C63.1587 24.3797 45.9257 39.668 19.182 95.0951C12.6483 109.826 27.2669 117.493 34.445 116.772C63.0769 113.578 128.98 102.372 163.536 83.0938C170.151 80.2166 176.013 67.2069 163.116 57.5451Z" fill="#EEACAC"/>
<path d="M64.8125 26.94C77.3098 17.7585 94.934 9.80499 163.116 57.5451C176.013 67.2069 170.151 80.2166 163.536 83.0938C128.98 102.372 63.0769 113.578 34.445 116.772C27.2669 117.493 12.6483 109.826 19.182 95.0951C55.3523 20.1312 74.1256 18.5889 89.5155 20.4951" stroke="#EEACAC"/>
</svg>
